<svg xmlns="http://www.w3.org/2000/svg" width="379" height="181" viewBox="0 0 379 181"><g fill="none" fill-rule="evenodd" transform="translate(-89.35 -61)"><path fill="#7CB342" fill-rule="nonzero" d="M412.87,190.24 C391.38,190.24 373.95,172.82 373.95,151.32 C373.95,129.82 391.38,112.4 412.87,112.4 C434.36,112.4 451.79,129.82 451.79,151.32 C451.79,172.82 434.37,190.24 412.87,190.24 M412.87,98.63 C383.77,98.63 360.18,122.22 360.18,151.32 C360.18,180.42 383.77,204.01 412.87,204.01 C441.97,204.01 465.56,180.42 465.56,151.32 C465.56,122.22 441.97,98.63 412.87,98.63"/><path fill="#7CB342" fill-rule="nonzero" d="M412.87,187.74 C402.8,187.74 393.72,183.67 387.12,177.07 C380.52,170.47 376.45,161.38 376.45,151.32 C376.45,141.26 380.52,132.17 387.12,125.57 C393.72,118.98 402.81,114.9 412.87,114.9 C422.94,114.9 432.02,118.97 438.62,125.57 C445.21,132.17 449.29,141.26 449.29,151.32 C449.29,161.39 445.22,170.48 438.62,177.07 C432.02,183.66 422.93,187.74 412.87,187.74 L412.87,192.74 C435.75,192.74 454.29,174.2 454.29,151.32 C454.29,128.44 435.75,109.9 412.87,109.9 C389.99,109.9 371.45,128.44 371.45,151.32 C371.45,174.2 389.99,192.74 412.87,192.74 L412.87,187.74 M412.87,96.13 C382.39,96.13 357.69,120.84 357.68,151.32 C357.68,181.8 382.39,206.51 412.87,206.51 C443.35,206.51 468.06,181.8 468.06,151.32 C468.06,120.84 443.35,96.13 412.87,96.13 L412.87,101.13 C426.74,101.13 439.27,106.74 448.36,115.83 C457.45,124.92 463.06,137.45 463.06,151.32 C463.06,165.19 457.44,177.72 448.36,186.81 C439.27,195.9 426.74,201.51 412.87,201.51 C399,201.51 386.47,195.9 377.38,186.81 C368.29,177.72 362.68,165.19 362.68,151.32 C362.68,137.45 368.29,124.92 377.38,115.83 C386.47,106.74 399,101.13 412.87,101.13 L412.87,96.13"/><path fill="#7CB342" fill-rule="nonzero" d="M412.86 128.06C425.7 128.06 436.12 138.47 436.12 151.32 436.12 164.17 425.7 174.57 412.86 174.57L412.86 128.06M332.88 109.41C335.67 110.64 338.19 112.13 340.37 113.94 345.24 117.97 348.36 123.24 349.76 129.72 358.74 103.48 383.6 84.6 412.88 84.6L412.88 61C378.13 61 347.99 80.64 332.88 109.41M346.3 155.5C344.74 158.1 342.77 160.4 340.37 162.4 336.17 165.88 330.85 168.28 324.42 169.62 332.88 210.73 369.27 241.64 412.88 241.64L412.88 218.04C377.44 218.04 348.47 190.4 346.31 155.51"/><polyline fill="#1A1918" fill-rule="nonzero" points="90.81 107.61 168.61 107.61 168.61 122.08 118.95 182.24 170.06 182.24 170.06 200.24 89.35 200.24 89.35 185.78 139.04 125.62 90.81 125.62 90.81 107.62"/><polyline fill="#1A1918" fill-rule="nonzero" points="178.78 107.61 256.58 107.61 256.58 122.08 206.92 182.24 258.03 182.24 258.03 200.24 177.32 200.24 177.32 185.78 227.01 125.62 178.78 125.62 178.78 107.62"/><path fill="#1A1918" fill-rule="nonzero" d="M293.68,124.71 L293.68,150.51 L306.92,150.51 C311.56,150.51 315.14,149.39 317.67,147.14 C320.2,144.89 321.46,141.71 321.46,137.58 C321.46,133.45 320.2,130.28 317.67,128.05 C315.14,125.82 311.56,124.71 306.92,124.71 L293.68,124.71 L293.68,124.71 Z M269.86,107.38 L309.46,107.38 C321.25,107.38 330.3,110 336.61,115.23 C342.92,120.46 346.07,127.91 346.07,137.59 C346.07,147.27 342.92,154.78 336.61,160.01 C330.3,165.24 321.25,167.86 309.46,167.86 L293.67,167.86 L293.67,200.01 L269.85,200.01 L269.85,107.39 L269.85,107.39 L269.86,107.38 Z"/><polyline fill="#1A1918" fill-rule="nonzero" points="319.45 199.34 315.24 199.34 308.04 187.73 308.04 199.34 304.04 199.34 304.04 182.42 309.26 182.42 315.45 192.11 315.45 182.42 319.45 182.42 319.45 199.34"/><path fill="#1A1918" fill-rule="nonzero" d="M331.34 190.33C331.32 189.48 331.11 188.83 330.7 188.4 330.3 187.97 329.67 187.75 328.82 187.75 328.03 187.75 327.38 187.95 326.88 188.36 326.37 188.77 326.09 189.42 326.03 190.32L331.34 190.32 331.34 190.33ZM335.4 192.73 326.04 192.73C326.1 193.73 326.48 194.49 327.18 195.02 327.88 195.55 328.91 195.81 330.28 195.81 331.15 195.81 331.98 195.66 332.79 195.34 333.6 195.03 334.24 194.69 334.71 194.34L335.16 194.34 335.16 197.63C334.23 198 333.36 198.27 332.55 198.44 331.73 198.61 330.82 198.69 329.83 198.69 327.27 198.69 325.31 198.12 323.94 196.96 322.58 195.81 321.9 194.17 321.9 192.04 321.9 189.91 322.55 188.27 323.84 187.04 325.13 185.81 326.9 185.19 329.15 185.19 331.23 185.19 332.79 185.72 333.83 186.77 334.88 187.82 335.4 189.33 335.4 191.3L335.4 192.74 335.4 192.74 335.4 192.73ZM345.9 194.83 345.9 188.55C345.61 188.43 345.31 188.34 344.99 188.29 344.67 188.24 344.38 188.21 344.12 188.21 343.05 188.21 342.24 188.55 341.71 189.22 341.17 189.89 340.9 190.83 340.9 192.02 340.9 193.27 341.11 194.18 341.55 194.75 341.98 195.32 342.67 195.6 343.63 195.6 344 195.6 344.39 195.53 344.81 195.39 345.23 195.25 345.59 195.07 345.91 194.84M350.01 198.34 345.9 198.34 345.9 197.01C345.2 197.59 344.54 198.01 343.92 198.29 343.31 198.57 342.6 198.7 341.8 198.7 340.25 198.7 339.01 198.1 338.08 196.9 337.15 195.7 336.68 194.08 336.68 192.05 336.68 190.96 336.84 190 337.15 189.16 337.46 188.32 337.89 187.6 338.44 187 338.96 186.43 339.58 185.99 340.32 185.68 341.05 185.36 341.79 185.21 342.52 185.21 343.25 185.21 343.91 185.29 344.4 185.45 344.89 185.61 345.39 185.82 345.9 186.07L345.9 180.64 350.01 180.64 350.01 198.33M361.69 190.33C361.67 189.48 361.45 188.83 361.05 188.4 360.65 187.97 360.02 187.75 359.17 187.75 358.38 187.75 357.73 187.95 357.23 188.36 356.72 188.77 356.44 189.42 356.38 190.32L361.69 190.32 361.69 190.33ZM365.75 192.73 356.39 192.73C356.45 193.73 356.83 194.49 357.53 195.02 358.23 195.55 359.26 195.81 360.63 195.81 361.49 195.81 362.33 195.66 363.14 195.34 363.95 195.03 364.59 194.69 365.06 194.34L365.51 194.34 365.51 197.63C364.59 198 363.71 198.27 362.89 198.44 362.07 198.61 361.17 198.69 360.17 198.69 357.61 198.69 355.65 198.12 354.28 196.96 352.92 195.81 352.23 194.17 352.23 192.04 352.23 189.91 352.88 188.27 354.17 187.04 355.46 185.81 357.23 185.19 359.48 185.19 361.56 185.19 363.12 185.72 364.16 186.77 365.2 187.82 365.73 189.33 365.73 191.3L365.73 192.74 365.73 192.74 365.75 192.73ZM377.21 189.48 376.85 189.48C376.68 189.42 376.4 189.37 376.01 189.34 375.62 189.31 375.3 189.29 375.05 189.29 374.47 189.29 373.96 189.33 373.51 189.41 373.06 189.49 372.58 189.61 372.07 189.8L372.07 198.35 367.96 198.35 367.96 185.58 372.07 185.58 372.07 187.46C372.97 186.69 373.75 186.17 374.41 185.92 375.07 185.67 375.69 185.54 376.24 185.54 376.38 185.54 376.55 185.54 376.73 185.55 376.91 185.55 377.07 185.57 377.21 185.59L377.21 189.5"/><polygon fill="#1A1918" fill-rule="nonzero" points="378.83 180.66 382.94 180.66 382.94 198.35 378.83 198.35"/><path fill="#1A1918" fill-rule="nonzero" d="M393.81 195 393.81 192.36C393.26 192.41 392.66 192.47 392.02 192.55 391.38 192.63 390.89 192.72 390.56 192.83 390.15 192.96 389.84 193.15 389.62 193.39 389.4 193.63 389.3 193.96 389.3 194.36 389.3 194.62 389.32 194.84 389.37 195 389.41 195.17 389.53 195.33 389.71 195.47 389.88 195.62 390.09 195.73 390.33 195.8 390.57 195.87 390.95 195.91 391.47 195.91 391.88 195.91 392.29 195.83 392.71 195.66 393.13 195.49 393.5 195.28 393.82 195.01M393.81 196.99C393.59 197.16 393.32 197.36 392.99 197.59 392.66 197.82 392.36 198.01 392.07 198.15 391.67 198.33 391.25 198.47 390.82 198.55 390.39 198.64 389.92 198.68 389.4 198.68 388.19 198.68 387.18 198.3 386.36 197.55 385.54 196.8 385.13 195.84 385.13 194.67 385.13 193.74 385.34 192.97 385.75 192.38 386.17 191.79 386.76 191.32 387.52 190.98 388.28 190.64 389.22 190.4 390.34 190.25 391.46 190.1 392.62 190 393.82 189.93L393.82 189.86C393.82 189.16 393.53 188.67 392.96 188.41 392.38 188.14 391.54 188.01 390.42 188.01 389.75 188.01 389.03 188.13 388.26 188.37 387.49 188.61 386.95 188.79 386.61 188.92L386.23 188.92 386.23 185.84C386.66 185.73 387.37 185.59 388.34 185.44 389.31 185.28 390.29 185.21 391.27 185.21 393.59 185.21 395.28 185.57 396.31 186.28 397.34 187 397.86 188.12 397.86 189.65L397.86 198.33 393.8 198.33 393.8 196.98M413.76 198.34 409.65 198.34 409.65 192.01C409.65 191.49 409.62 190.98 409.57 190.47 409.52 189.96 409.43 189.58 409.3 189.34 409.15 189.06 408.93 188.85 408.64 188.73 408.35 188.6 407.94 188.54 407.42 188.54 407.05 188.54 406.68 188.6 406.3 188.72 405.92 188.84 405.51 189.04 405.06 189.3L405.06 198.35 400.95 198.35 400.95 185.58 405.06 185.58 405.06 186.98C405.78 186.41 406.48 185.98 407.15 185.67 407.82 185.36 408.56 185.21 409.38 185.21 410.76 185.21 411.83 185.61 412.61 186.42 413.38 187.22 413.77 188.42 413.77 190.03L413.77 198.34M425.14 194.83 425.14 188.55C424.85 188.43 424.55 188.34 424.23 188.29 423.91 188.24 423.62 188.21 423.36 188.21 422.29 188.21 421.48 188.55 420.95 189.22 420.41 189.89 420.15 190.83 420.15 192.02 420.15 193.27 420.37 194.18 420.8 194.75 421.23 195.32 421.92 195.6 422.88 195.6 423.25 195.6 423.64 195.53 424.06 195.39 424.48 195.25 424.84 195.07 425.16 194.84M429.25 198.34 425.14 198.34 425.14 197.01C424.44 197.59 423.78 198.01 423.16 198.29 422.55 198.57 421.84 198.7 421.04 198.7 419.49 198.7 418.25 198.1 417.32 196.9 416.39 195.7 415.92 194.08 415.92 192.05 415.92 190.96 416.08 190 416.39 189.16 416.7 188.32 417.13 187.6 417.68 187 418.19 186.43 418.82 185.99 419.55 185.68 420.28 185.36 421.02 185.21 421.75 185.21 422.48 185.21 423.14 185.29 423.63 185.45 424.12 185.61 424.62 185.82 425.14 186.07L425.14 180.64 429.25 180.64 429.25 198.33"/><path fill="#7CB342" fill-rule="nonzero" d="M412.87,190.24 C391.38,190.24 373.95,172.82 373.95,151.32 C373.95,129.82 391.38,112.4 412.87,112.4 C434.36,112.4 451.79,129.82 451.79,151.32 C451.79,172.82 434.37,190.24 412.87,190.24 M412.87,98.63 C383.77,98.63 360.18,122.22 360.18,151.32 C360.18,180.42 383.77,204.01 412.87,204.01 C441.97,204.01 465.56,180.42 465.56,151.32 C465.56,122.22 441.97,98.63 412.87,98.63"/><path fill="#7CB342" fill-rule="nonzero" d="M412.87,187.74 C402.8,187.74 393.72,183.67 387.12,177.07 C380.52,170.47 376.45,161.38 376.45,151.32 C376.45,141.26 380.52,132.17 387.12,125.57 C393.72,118.98 402.81,114.9 412.87,114.9 C422.94,114.9 432.02,118.97 438.62,125.57 C445.21,132.17 449.29,141.26 449.29,151.32 C449.29,161.39 445.22,170.48 438.62,177.07 C432.02,183.66 422.93,187.74 412.87,187.74 L412.87,192.74 C435.75,192.74 454.29,174.2 454.29,151.32 C454.29,128.44 435.75,109.9 412.87,109.9 C389.99,109.9 371.45,128.44 371.45,151.32 C371.45,174.2 389.99,192.74 412.87,192.74 L412.87,187.74 M412.87,96.13 C382.39,96.13 357.69,120.84 357.68,151.32 C357.68,181.8 382.39,206.51 412.87,206.51 C443.35,206.51 468.06,181.8 468.06,151.32 C468.06,120.84 443.35,96.13 412.87,96.13 L412.87,101.13 C426.74,101.13 439.27,106.74 448.36,115.83 C457.45,124.92 463.06,137.45 463.06,151.32 C463.06,165.19 457.44,177.72 448.36,186.81 C439.27,195.9 426.74,201.51 412.87,201.51 C399,201.51 386.47,195.9 377.38,186.81 C368.29,177.72 362.68,165.19 362.68,151.32 C362.68,137.45 368.29,124.92 377.38,115.83 C386.47,106.74 399,101.13 412.87,101.13 L412.87,96.13"/><path fill="#7CB342" fill-rule="nonzero" d="M412.86 128.06C425.7 128.06 436.12 138.47 436.12 151.32 436.12 164.17 425.7 174.57 412.86 174.57L412.86 128.06M332.88 109.41C335.67 110.64 338.19 112.13 340.37 113.94 345.24 117.97 348.36 123.24 349.76 129.72 358.74 103.48 383.6 84.6 412.88 84.6L412.88 61C378.13 61 347.99 80.64 332.88 109.41M346.3 155.5C344.74 158.1 342.77 160.4 340.37 162.4 336.17 165.88 330.85 168.28 324.42 169.62 332.88 210.73 369.27 241.64 412.88 241.64L412.88 218.04C377.44 218.04 348.47 190.4 346.31 155.51"/><polyline fill="#1A1918" fill-rule="nonzero" points="90.81 107.61 168.61 107.61 168.61 122.08 118.95 182.24 170.06 182.24 170.06 200.24 89.35 200.24 89.35 185.78 139.04 125.62 90.81 125.62 90.81 107.62"/><polyline fill="#1A1918" fill-rule="nonzero" points="178.78 107.61 256.58 107.61 256.58 122.08 206.92 182.24 258.03 182.24 258.03 200.24 177.32 200.24 177.32 185.78 227.01 125.62 178.78 125.62 178.78 107.62"/><path fill="#1A1918" fill-rule="nonzero" d="M293.68,124.71 L293.68,150.51 L306.92,150.51 C311.56,150.51 315.14,149.39 317.67,147.14 C320.2,144.89 321.46,141.71 321.46,137.58 C321.46,133.45 320.2,130.28 317.67,128.05 C315.14,125.82 311.56,124.71 306.92,124.71 L293.68,124.71 L293.68,124.71 Z M269.86,107.38 L309.46,107.38 C321.25,107.38 330.3,110 336.61,115.23 C342.92,120.46 346.07,127.91 346.07,137.59 C346.07,147.27 342.92,154.78 336.61,160.01 C330.3,165.24 321.25,167.86 309.46,167.86 L293.67,167.86 L293.67,200.01 L269.85,200.01 L269.85,107.39 L269.85,107.39 L269.86,107.38 Z"/><polyline fill="#1A1918" fill-rule="nonzero" points="319.45 199.34 315.24 199.34 308.04 187.73 308.04 199.34 304.04 199.34 304.04 182.42 309.26 182.42 315.45 192.11 315.45 182.42 319.45 182.42 319.45 199.34"/><path fill="#1A1918" fill-rule="nonzero" d="M331.34 190.33C331.32 189.48 331.11 188.83 330.7 188.4 330.3 187.97 329.67 187.75 328.82 187.75 328.03 187.75 327.38 187.95 326.88 188.36 326.37 188.77 326.09 189.42 326.03 190.32L331.34 190.32 331.34 190.33ZM335.4 192.73 326.04 192.73C326.1 193.73 326.48 194.49 327.18 195.02 327.88 195.55 328.91 195.81 330.28 195.81 331.15 195.81 331.98 195.66 332.79 195.34 333.6 195.03 334.24 194.69 334.71 194.34L335.16 194.34 335.16 197.63C334.23 198 333.36 198.27 332.55 198.44 331.73 198.61 330.82 198.69 329.83 198.69 327.27 198.69 325.31 198.12 323.94 196.96 322.58 195.81 321.9 194.17 321.9 192.04 321.9 189.91 322.55 188.27 323.84 187.04 325.13 185.81 326.9 185.19 329.15 185.19 331.23 185.19 332.79 185.72 333.83 186.77 334.88 187.82 335.4 189.33 335.4 191.3L335.4 192.74 335.4 192.74 335.4 192.73ZM345.9 194.83 345.9 188.55C345.61 188.43 345.31 188.34 344.99 188.29 344.67 188.24 344.38 188.21 344.12 188.21 343.05 188.21 342.24 188.55 341.71 189.22 341.17 189.89 340.9 190.83 340.9 192.02 340.9 193.27 341.11 194.18 341.55 194.75 341.98 195.32 342.67 195.6 343.63 195.6 344 195.6 344.39 195.53 344.81 195.39 345.23 195.25 345.59 195.07 345.91 194.84M350.01 198.34 345.9 198.34 345.9 197.01C345.2 197.59 344.54 198.01 343.92 198.29 343.31 198.57 342.6 198.7 341.8 198.7 340.25 198.7 339.01 198.1 338.08 196.9 337.15 195.7 336.68 194.08 336.68 192.05 336.68 190.96 336.84 190 337.15 189.16 337.46 188.32 337.89 187.6 338.44 187 338.96 186.43 339.58 185.99 340.32 185.68 341.05 185.36 341.79 185.21 342.52 185.21 343.25 185.21 343.91 185.29 344.4 185.45 344.89 185.61 345.39 185.82 345.9 186.07L345.9 180.64 350.01 180.64 350.01 198.33M361.69 190.33C361.67 189.48 361.45 188.83 361.05 188.4 360.65 187.97 360.02 187.75 359.17 187.75 358.38 187.75 357.73 187.95 357.23 188.36 356.72 188.77 356.44 189.42 356.38 190.32L361.69 190.32 361.69 190.33ZM365.75 192.73 356.39 192.73C356.45 193.73 356.83 194.49 357.53 195.02 358.23 195.55 359.26 195.81 360.63 195.81 361.49 195.81 362.33 195.66 363.14 195.34 363.95 195.03 364.59 194.69 365.06 194.34L365.51 194.34 365.51 197.63C364.59 198 363.71 198.27 362.89 198.44 362.07 198.61 361.17 198.69 360.17 198.69 357.61 198.69 355.65 198.12 354.28 196.96 352.92 195.81 352.23 194.17 352.23 192.04 352.23 189.91 352.88 188.27 354.17 187.04 355.46 185.81 357.23 185.19 359.48 185.19 361.56 185.19 363.12 185.72 364.16 186.77 365.2 187.82 365.73 189.33 365.73 191.3L365.73 192.74 365.73 192.74 365.75 192.73ZM377.21 189.48 376.85 189.48C376.68 189.42 376.4 189.37 376.01 189.34 375.62 189.31 375.3 189.29 375.05 189.29 374.47 189.29 373.96 189.33 373.51 189.41 373.06 189.49 372.58 189.61 372.07 189.8L372.07 198.35 367.96 198.35 367.96 185.58 372.07 185.58 372.07 187.46C372.97 186.69 373.75 186.17 374.41 185.92 375.07 185.67 375.69 185.54 376.24 185.54 376.38 185.54 376.55 185.54 376.73 185.55 376.91 185.55 377.07 185.57 377.21 185.59L377.21 189.5"/><polygon fill="#1A1918" fill-rule="nonzero" points="378.83 180.66 382.94 180.66 382.94 198.35 378.83 198.35"/><path fill="#1A1918" fill-rule="nonzero" d="M393.81 195 393.81 192.36C393.26 192.41 392.66 192.47 392.02 192.55 391.38 192.63 390.89 192.72 390.56 192.83 390.15 192.96 389.84 193.15 389.62 193.39 389.4 193.63 389.3 193.96 389.3 194.36 389.3 194.62 389.32 194.84 389.37 195 389.41 195.17 389.53 195.33 389.71 195.47 389.88 195.62 390.09 195.73 390.33 195.8 390.57 195.87 390.95 195.91 391.47 195.91 391.88 195.91 392.29 195.83 392.71 195.66 393.13 195.49 393.5 195.28 393.82 195.01M393.81 196.99C393.59 197.16 393.32 197.36 392.99 197.59 392.66 197.82 392.36 198.01 392.07 198.15 391.67 198.33 391.25 198.47 390.82 198.55 390.39 198.64 389.92 198.68 389.4 198.68 388.19 198.68 387.18 198.3 386.36 197.55 385.54 196.8 385.13 195.84 385.13 194.67 385.13 193.74 385.34 192.97 385.75 192.38 386.17 191.79 386.76 191.32 387.52 190.98 388.28 190.64 389.22 190.4 390.34 190.25 391.46 190.1 392.62 190 393.82 189.93L393.82 189.86C393.82 189.16 393.53 188.67 392.96 188.41 392.38 188.14 391.54 188.01 390.42 188.01 389.75 188.01 389.03 188.13 388.26 188.37 387.49 188.61 386.95 188.79 386.61 188.92L386.23 188.92 386.23 185.84C386.66 185.73 387.37 185.59 388.34 185.44 389.31 185.28 390.29 185.21 391.27 185.21 393.59 185.21 395.28 185.57 396.31 186.28 397.34 187 397.86 188.12 397.86 189.65L397.86 198.33 393.8 198.33 393.8 196.98M413.76 198.34 409.65 198.34 409.65 192.01C409.65 191.49 409.62 190.98 409.57 190.47 409.52 189.96 409.43 189.58 409.3 189.34 409.15 189.06 408.93 188.85 408.64 188.73 408.35 188.6 407.94 188.54 407.42 188.54 407.05 188.54 406.68 188.6 406.3 188.72 405.92 188.84 405.51 189.04 405.06 189.3L405.06 198.35 400.95 198.35 400.95 185.58 405.06 185.58 405.06 186.98C405.78 186.41 406.48 185.98 407.15 185.67 407.82 185.36 408.56 185.21 409.38 185.21 410.76 185.21 411.83 185.61 412.61 186.42 413.38 187.22 413.77 188.42 413.77 190.03L413.77 198.34M425.14 194.83 425.14 188.55C424.85 188.43 424.55 188.34 424.23 188.29 423.91 188.24 423.62 188.21 423.36 188.21 422.29 188.21 421.48 188.55 420.95 189.22 420.41 189.89 420.15 190.83 420.15 192.02 420.15 193.27 420.37 194.18 420.8 194.75 421.23 195.32 421.92 195.6 422.88 195.6 423.25 195.6 423.64 195.53 424.06 195.39 424.48 195.25 424.84 195.07 425.16 194.84M429.25 198.34 425.14 198.34 425.14 197.01C424.44 197.59 423.78 198.01 423.16 198.29 422.55 198.57 421.84 198.7 421.04 198.7 419.49 198.7 418.25 198.1 417.32 196.9 416.39 195.7 415.92 194.08 415.92 192.05 415.92 190.96 416.08 190 416.39 189.16 416.7 188.32 417.13 187.6 417.68 187 418.19 186.43 418.82 185.99 419.55 185.68 420.28 185.36 421.02 185.21 421.75 185.21 422.48 185.21 423.14 185.29 423.63 185.45 424.12 185.61 424.62 185.82 425.14 186.07L425.14 180.64 429.25 180.64 429.25 198.33"/><path stroke="#F7BA17" stroke-width="22" d="M144.42,89.52 C144.42,89.52 228.27,79.16 330.93,88.73"/><path fill="#231F20" fill-rule="nonzero" d="M171.24 87.08C171.91 86.96 175.19 86.41 175.78 86.41 176.28 86.41 180.82 87.92 180.95 89.14 181.03 89.81 180.7 90.27 180.4 90.53 179.43 91.37 167.29 93.34 166.75 93.34 164.78 93.34 162.34 92.16 162.09 90.27 162.09 90.02 162.09 89.77 162.13 89.56 162.38 88.64 167.25 83.39 168.3 82.17 169.94 80.32 171.37 78.6 172.38 77.25 169.69 78.26 165.95 80.11 164.02 81.87 163.39 82.46 162.42 82.54 161.92 82.54 160.79 82.54 158.68 81.91 158.52 80.44 158.06 76.74 171.58 71.74 174.82 71.74 176.33 71.74 181.16 73.29 181.42 75.56 181.71 77.83 173.06 85.05 171.25 87.07L171.24 87.08ZM203.96 87.59C202.36 90.24 198.46 93.18 194.34 93.18 191.74 93.18 187.91 91.29 186.61 89.31 185.94 88.3 185.22 86.92 185.01 85.15 184.42 80.36 188.96 72.59 195.05 72.59 195.81 72.59 196.52 72.84 197.07 73.09 197.53 72.92 198.04 72.84 198.54 72.84 203.08 72.84 204.97 76.49 205.43 80.11 205.68 82.21 205.51 84.98 203.96 87.59ZM197.91 77.46C195.6 77.46 193.21 80.74 192.37 82.04 191.61 83.26 191.45 84.77 191.61 86.12 191.74 86.88 191.61 88.26 192.87 88.26 196.78 88.26 199.34 83.26 198.96 80.03 198.88 79.4 199.04 77.47 197.91 77.47L197.91 77.46ZM227.23 101.29C226.56 101.92 225.37 102.62 224.08 102.62 223.87 102.62 223.66 102.58 223.45 102.55 221.56 102.17 215.54 97.05 215.29 94.92 215.08 93.28 216.8 93.07 217.29 93.07 217.82 93.07 219.22 93.24 219.85 94.22 220.69 95.52 221.77 96.53 222.68 97.23 223.24 92.99 223.49 79.9 223.49 73.36 223.49 72.2 224.33 71.54 225.38 71.54 226.57 71.54 227.94 72.34 228.6 73.22 228.88 73.54 229.02 74.13 229.09 74.72 229.58 78.78 229.4 99.26 227.24 101.29L227.23 101.29ZM252.53 93.52C251.51 93.52 249.97 93.13 249.24 92.15 248.78 91.52 248.15 89.07 247.91 88.12 245.04 88.82 241.43 89.31 239.96 89.49 238.98 91.41 238.28 93.45 237.4 95.44 237.26 95.72 234.84 97.68 234.14 97.68 233.26 97.68 232.21 97.15 232.14 96.1 231.93 92.39 240.86 74.29 241.91 73.63 242.93 73.04 244.08 72.75 245.1 72.75 245.87 72.75 247.03 72.92 247.8 73.73 250.11 76.25 254.38 88.22 254.73 91.23 254.9 92.66 254.13 93.51 252.52 93.51L252.53 93.52ZM244.66 78.53C244.06 79.69 243.12 81.72 242.21 83.92 243.93 83.4 245.33 83.12 246.31 82.98 245.85 81.68 245.15 79.76 244.66 78.53ZM276.23 93.52C275.21 93.52 273.67 93.13 272.94 92.15 272.48 91.52 271.85 89.07 271.61 88.12 268.74 88.82 265.13 89.31 263.66 89.49 262.68 91.41 261.98 93.45 261.1 95.44 260.96 95.72 258.54 97.68 257.84 97.68 256.96 97.68 255.91 97.15 255.84 96.1 255.63 92.39 264.56 74.29 265.61 73.63 266.63 73.04 267.78 72.75 268.8 72.75 269.57 72.75 270.73 72.92 271.5 73.73 273.81 76.25 278.08 88.22 278.43 91.23 278.6 92.66 277.83 93.51 276.22 93.51L276.23 93.52ZM268.35 78.53C267.75 79.69 266.81 81.72 265.9 83.92 267.62 83.4 269.02 83.12 270 82.98 269.54 81.68 268.84 79.76 268.35 78.53L268.35 78.53ZM291.87 87.91C293.2 88.61 295.09 89.41 296.49 90.22 296.87 90.43 297.37 90.85 297.43 91.52 297.61 92.74 295.68 93.48 294.49 93.48 292.53 93.48 289.59 90.57 287.84 89.59 288.05 90.36 287.98 91.45 288.01 91.8 288.19 93.34 286.89 94.04 286.09 94.04 285.29 94.04 284.02 93.73 283.29 92.75 282.48 91.67 281.78 89.18 281.5 86.76 281.39 86.02 281.36 85.29 281.32 84.55 281.25 80.91 282.55 75.87 283.14 75.8 285.28 75.55 287.38 75.45 289.27 75.45 292.52 75.45 295.4 75.73 296.76 76.15 298.93 76.82 302.22 78.46 302.5 80.74 302.81 83.57 295.29 86.66 291.86 87.92L291.87 87.91ZM290.37 79.48C289.53 79.48 288.69 79.52 287.92 79.55 287.57 80.92 287.39 83.58 287.39 85.26 290.44 84.32 295.76 81.55 296.35 80.11 295.51 79.8 293.31 79.48 290.36 79.48L290.37 79.48ZM307.62 94.39C307.06 94.77 306.4 94.95 305.8 94.95 304.79 94.95 303.04 94.32 302.86 92.95 302.65 91.16 305.59 89.24 306.89 89.17 307.94 89.13 308.89 90.05 309.02 91.13 309.13 92.08 308.81 93.58 307.62 94.39ZM310.88 86.65C310.63 86.79 310.28 86.93 309.83 86.93 308.61 86.93 307.94 85.95 307.83 85.04 307.76 84.58 307.8 84.13 307.87 83.67 308.04 81.88 313.33 71.45 314.31 70.54 314.91 69.98 315.89 69.91 316.45 69.91 318.13 69.91 319.7 70.96 319.81 71.91 319.98 73.24 312.81 85.63 310.88 86.65Z"/></g></svg>